# xmcd CD database file
#
# Track frame offsets:
#	182
#	14120
#	23417
#	35455
#	47067
#	58217
#	70335
#	84215
#	97555
#	107992
#	116812
#	126412
#	137087
#	145700
#	158945
#	173155
#
# Disc length: 2528 seconds
#
# Revision: 2
# Processed by: cddbd v1.4b41PL1 Copyright (c) Steve Scherf et al.
# Submitted via: Feurio! 1.50.2ß - http://www.feurio.com
#
DISCID=d909de10
DTITLE=Various Artist - Hit Come Back - The Original Oldies US - Vol. 2
DYEAR=1900
DGENRE=
TTITLE0=Larry Verne - Mister Custer
TTITLE1=Joe Dowell - Wooden Heart
TTITLE2=Dion - Runaround Sue
TTITLE3=Bobby Lewis - Tossin' And Turnin'
TTITLE4=Little Eva - The Loco-Motion
TTITLE5=Shirelles - Soldier Boy
TTITLE6=Connie Francis - Don't Break The Heart That Loves You
TTITLE7=Mr. Acker Bilk - Stranger On The Share
TTITLE8=The Angels - My Boyfriend's Back
TTITLE9=David Rose and His Orchestra - The Stripper
TTITLE10=Dale and Grace - I'm Loving It Up To You
TTITLE11=Lesley Gore - It's My Party
TTITLE12=Chiffons - He's So Fine
TTITLE13=Soeur Sourire - Dominique
TTITLE14=Lou Christie - Lightmin' Strikes
TTITLE15=Rhe Righteous Brothers - You've Lost That Loving Feeling
EXTD=
EXTT0=
EXTT1=
EXTT2=
EXTT3=
EXTT4=
EXTT5=
EXTT6=
EXTT7=
EXTT8=
EXTT9=
EXTT10=
EXTT11=
EXTT12=
EXTT13=
EXTT14=
EXTT15=
PLAYORDER=
